# xmcd
#
# Track frame offsets:
#	152
#	19980
#	43527
#	66422
#
# Disc length: 1199 seconds
#
# Revision: 1
# Processed by: cddbd v1.5.1PL2 Copyright (c) Steve Scherf et al.
# Submitted via: audiograbber 1.83.01
#
DISCID=3204ad04
DTITLE=Janet Jackson - Alright (Single)
DYEAR=1989
DGENRE=R&B
TTITLE0=Alright (Shep Pettibone House Mix)
TTITLE1=Alright (Hip-Hop Mix)
TTITLE2=Alright (Makintosh and Dorrell House Mix)
TTITLE3=Vuelve A Mi (Come Back To Me)
EXTD=
EXTT0=
EXTT1=
EXTT2=
EXTT3=
PLAYORDER=
